<?xml version="1.0" encoding="UTF-8"?><svg xmlns="http://www.w3.org/2000/svg" xmlns:xlink="http://www.w3.org/1999/xlink" width="375" zoomAndPan="magnify" viewBox="0 0 375 374.999991" height="374.999991" preserveAspectRatio="xMidYMid meet" version="1.0"><defs><clipPath id="clip-0"><path d="M 66.480469 29.820312 L 309.480469 29.820312 L 309.480469 346.320312 L 66.480469 346.320312 Z M 66.480469 29.820312 " clip-rule="nonzero"/></clipPath></defs><g clip-path="url(#clip-0)"><path fill="rgb(0%, 0%, 0%)" d="M 304.074219 346.320312 L 71.886719 346.320312 C 68.972656 346.320312 66.609375 343.960938 66.609375 341.042969 L 66.609375 35.09375 C 66.609375 32.175781 68.972656 29.820312 71.886719 29.820312 L 304.074219 29.820312 C 306.984375 29.820312 309.351562 32.175781 309.351562 35.09375 L 309.351562 341.042969 C 309.351562 343.960938 306.984375 346.320312 304.074219 346.320312 Z M 77.164062 335.769531 L 298.796875 335.769531 L 298.796875 40.371094 L 77.164062 40.371094 Z M 77.164062 335.769531 " fill-opacity="1" fill-rule="nonzero"/></g><path fill="rgb(0%, 0%, 0%)" d="M 129.933594 108.945312 C 115.386719 108.945312 103.546875 97.113281 103.546875 82.570312 C 103.546875 68.027344 115.386719 56.195312 129.933594 56.195312 C 144.480469 56.195312 156.316406 68.027344 156.316406 82.570312 C 156.316406 97.113281 144.480469 108.945312 129.933594 108.945312 Z M 129.933594 66.746094 C 121.207031 66.746094 114.101562 73.84375 114.101562 82.570312 C 114.101562 91.292969 121.207031 98.394531 129.933594 98.394531 C 138.660156 98.394531 145.765625 91.292969 145.765625 82.570312 C 145.765625 73.84375 138.660156 66.746094 129.933594 66.746094 Z M 129.933594 66.746094 " fill-opacity="1" fill-rule="nonzero"/><path fill="rgb(0%, 0%, 0%)" d="M 166.871094 156.417969 L 156.316406 156.417969 C 156.316406 141.875 144.480469 130.042969 129.933594 130.042969 C 115.386719 130.042969 103.546875 141.875 103.546875 156.417969 L 92.996094 156.417969 C 92.996094 136.0625 109.566406 119.492188 129.933594 119.492188 C 150.300781 119.492188 166.871094 136.0625 166.871094 156.417969 Z M 166.871094 156.417969 " fill-opacity="1" fill-rule="nonzero"/><path fill="rgb(0%, 0%, 0%)" d="M 277.6875 114.21875 L 182.703125 114.21875 C 179.789062 114.21875 177.425781 111.859375 177.425781 108.945312 L 177.425781 66.746094 C 177.425781 63.828125 179.789062 61.46875 182.703125 61.46875 L 277.6875 61.46875 C 280.601562 61.46875 282.964844 63.828125 282.964844 66.746094 L 282.964844 108.945312 C 282.964844 111.859375 280.601562 114.21875 277.6875 114.21875 Z M 187.980469 103.667969 L 272.410156 103.667969 L 272.410156 72.019531 L 187.980469 72.019531 Z M 187.980469 103.667969 " fill-opacity="1" fill-rule="nonzero"/><path fill="rgb(0%, 0%, 0%)" d="M 193.257812 319.945312 L 98.273438 319.945312 C 95.359375 319.945312 92.996094 317.585938 92.996094 314.667969 L 92.996094 283.019531 C 92.996094 280.101562 95.359375 277.742188 98.273438 277.742188 L 193.257812 277.742188 C 196.167969 277.742188 198.535156 280.101562 198.535156 283.019531 L 198.535156 314.667969 C 198.535156 317.585938 196.167969 319.945312 193.257812 319.945312 Z M 103.546875 309.394531 L 187.980469 309.394531 L 187.980469 288.292969 L 103.546875 288.292969 Z M 103.546875 309.394531 " fill-opacity="1" fill-rule="nonzero"/><path fill="rgb(0%, 0%, 0%)" d="M 177.425781 124.769531 L 282.964844 124.769531 L 282.964844 135.320312 L 177.425781 135.320312 Z M 177.425781 124.769531 " fill-opacity="1" fill-rule="nonzero"/><path fill="rgb(0%, 0%, 0%)" d="M 177.425781 145.867188 L 282.964844 145.867188 L 282.964844 156.417969 L 177.425781 156.417969 Z M 177.425781 145.867188 " fill-opacity="1" fill-rule="nonzero"/><path fill="rgb(0%, 0%, 0%)" d="M 209.085938 283.019531 L 282.964844 283.019531 L 282.964844 293.570312 L 209.085938 293.570312 Z M 209.085938 283.019531 " fill-opacity="1" fill-rule="nonzero"/><path fill="rgb(0%, 0%, 0%)" d="M 209.085938 304.117188 L 282.964844 304.117188 L 282.964844 314.667969 L 209.085938 314.667969 Z M 209.085938 304.117188 " fill-opacity="1" fill-rule="nonzero"/><path fill="rgb(0%, 0%, 0%)" d="M 92.996094 172.242188 L 282.964844 172.242188 L 282.964844 182.792969 L 92.996094 182.792969 Z M 92.996094 172.242188 " fill-opacity="1" fill-rule="nonzero"/><path fill="rgb(0%, 0%, 0%)" d="M 92.996094 193.34375 L 282.964844 193.34375 L 282.964844 203.894531 L 92.996094 203.894531 Z M 92.996094 193.34375 " fill-opacity="1" fill-rule="nonzero"/><path fill="rgb(0%, 0%, 0%)" d="M 92.996094 214.445312 L 282.964844 214.445312 L 282.964844 224.992188 L 92.996094 224.992188 Z M 92.996094 214.445312 " fill-opacity="1" fill-rule="nonzero"/><path fill="rgb(0%, 0%, 0%)" d="M 92.996094 235.542969 L 282.964844 235.542969 L 282.964844 246.09375 L 92.996094 246.09375 Z M 92.996094 235.542969 " fill-opacity="1" fill-rule="nonzero"/><path fill="rgb(0%, 0%, 0%)" d="M 92.996094 256.644531 L 282.964844 256.644531 L 282.964844 267.195312 L 92.996094 267.195312 Z M 92.996094 256.644531 " fill-opacity="1" fill-rule="nonzero"/></svg>